<svg width="33" height="29" viewBox="0 0 33 29" fill="none" xmlns="http://www.w3.org/2000/svg">
<path fill-rule="evenodd" clip-rule="evenodd" d="M32.2826 13.7941H30.9913C29.7 13.063 24.5348 4.43658 24.3913 2.68205L25.3239 1.14684C25.5391 0.781314 25.3957 0.342682 25.1087 0.123365C24.75 -0.0959508 24.3196 0.05026 24.1043 0.342682L23.3152 1.73168L23.2435 1.80479C22.6696 2.09721 20.3739 2.46274 16.5 2.46274C12.6261 2.46274 10.3304 2.09721 9.82826 1.80479L9.75652 1.73168L8.96739 0.342682C8.75217 -0.0228454 8.32174 -0.0959508 7.96304 0.123365C7.60435 0.342682 7.53261 0.781314 7.74783 1.14684L8.6087 2.68205C8.46522 4.43658 3.3 13.063 2.0087 13.7941H0.717391C0.286957 13.7941 0 14.0865 0 14.5251C0 14.9638 0.286957 15.2562 0.717391 15.2562H2.0087C3.3 15.9872 8.46522 24.6137 8.6087 26.3682L7.67609 27.9034C7.46087 28.2689 7.60435 28.7076 7.8913 28.9269C8.03478 29 8.10652 29 8.25 29C8.46522 29 8.75217 28.8538 8.89565 28.6345L9.68478 27.2455L9.75652 27.1724C10.187 26.8799 12.4826 26.5875 16.4283 26.5875C20.3739 26.5875 22.5978 26.953 23.1 27.1724L23.1717 27.2455L23.9609 28.6345C24.1043 28.8538 24.3196 29 24.6065 29C24.75 29 24.8935 29 24.9652 28.9269C25.3239 28.7076 25.3957 28.2689 25.1804 27.9034L24.3913 26.3682C24.5348 24.6137 29.7 15.9141 30.9913 15.2562H32.2826C32.713 15.2562 33 14.9638 33 14.5251C33 14.0865 32.713 13.7941 32.2826 13.7941ZM25.1804 7.94564C25.8261 9.11533 27.4761 11.9664 28.9826 13.7941H25.2522C24.3913 13.2092 21.6652 8.89601 21.3065 7.72633L23.3152 4.29037C23.7457 5.16764 24.3196 6.33732 25.1804 7.94564ZM17.7913 15.2562L20.4457 19.7887C20.5891 19.5694 20.7326 19.277 20.8761 18.9846C20.9478 18.8383 22.0957 16.7183 23.3152 15.2562H17.7913ZM12.1239 18.9846C12.0522 18.8383 10.8326 16.7183 9.68478 15.2562H15.2087L12.5543 19.7887C12.4109 19.5694 12.2674 19.277 12.1239 18.9846L12.1239 18.9846ZM15.2087 13.7941L12.5543 9.26154C12.4109 9.48085 12.2674 9.77326 12.1239 10.0657L12.1239 10.0657C12.0522 10.2119 10.9043 12.332 9.68478 13.7941H15.2087ZM13.8457 8.60359C14.4913 8.6767 15.3522 8.7498 16.5 8.7498C17.6478 8.7498 18.5087 8.6767 19.1543 8.60359L16.5 13.1361L13.8457 8.60359ZM19.1543 20.4467L16.5 15.9141L13.8457 20.4467C14.4913 20.3736 15.3522 20.3005 16.5 20.3005C17.6478 20.3005 18.5087 20.3736 19.1543 20.4467ZM17.7913 13.7941L20.4457 9.26154C20.5891 9.48086 20.7326 9.77328 20.8761 10.0657C20.9478 10.2119 22.1674 12.332 23.3152 13.7941H17.7913ZM22.1674 3.63242C21.0196 3.77864 19.2261 3.92485 16.5 3.92485C13.7739 3.92485 11.9804 3.77864 10.8326 3.55932L12.8413 6.99527C13.2 7.14148 14.4913 7.28769 16.5 7.28769C18.5087 7.28769 19.8 7.14148 20.1587 6.99527L22.1674 3.63242ZM7.81956 7.94564C8.75217 6.33732 9.25435 5.16764 9.61304 4.29037L11.6217 7.72633C11.3348 8.89601 8.53696 13.2092 7.67609 13.7941H4.01739C5.52391 12.0395 7.17391 9.11533 7.81956 7.94564ZM4.01739 15.2562C5.52391 17.0838 7.17391 19.9349 7.81956 21.1046C8.68043 22.7129 9.25435 23.8826 9.61304 24.7599L11.6935 21.3239C11.3348 20.1542 8.6087 15.841 7.74783 15.2562H4.01739ZM16.5 25.1254C13.7739 25.1254 11.9804 25.2716 10.8326 25.4178L12.8413 22.055C13.2 21.9088 14.4913 21.7626 16.5 21.7626C18.5087 21.7626 19.8 21.9088 20.1587 22.055L22.1674 25.4178C21.0196 25.2716 19.2261 25.1254 16.5 25.1254ZM23.387 24.7599C23.7457 23.8826 24.2478 22.7129 25.1804 21.1046C25.8261 19.9349 27.4761 17.0107 29.0543 15.2562H25.3239C24.463 15.841 21.6652 20.1542 21.3783 21.3239L23.387 24.7599Z" fill="#FC5C42"/>
</svg>
