<svg width="23" height="23" viewBox="0 0 23 23" fill="none" xmlns="http://www.w3.org/2000/svg">
<path fill-rule="evenodd" clip-rule="evenodd" d="M11.5 22C17.299 22 22 17.299 22 11.5C22 5.70101 17.299 1 11.5 1C5.70101 1 1 5.70101 1 11.5C1 17.299 5.70101 22 11.5 22Z" stroke="white" stroke-width="2"/>
<path fill-rule="evenodd" clip-rule="evenodd" d="M9.2985 7.03767C9.2415 6.99443 9.16594 6.98777 9.10275 7.02104C9.03975 7.0543 9 7.1218 9 7.19556V15.8043C9 15.8781 9.03975 15.9456 9.10275 15.9789C9.12938 15.993 9.15863 16 9.1875 16C9.22669 16 9.26569 15.9873 9.2985 15.9622L14.9235 11.6578C14.9717 11.6209 15 11.5622 15 11.5C15 11.4377 14.9717 11.379 14.9235 11.3421L9.2985 7.03767Z" fill="white"/>
</svg>
